<svg width="216" height="266" viewBox="0 0 216 266" fill="none" xmlns="http://www.w3.org/2000/svg">
<g clip-path="url(#clip0_654_2319)">
<path d="M69.4096 265.364C82.2133 265.364 92.5927 254.985 92.5927 242.181C92.5927 229.377 82.2133 218.998 69.4096 218.998C56.606 218.998 46.2266 229.377 46.2266 242.181C46.2266 254.985 56.606 265.364 69.4096 265.364Z" fill="#F5915E"/>
<path d="M59.3299 174.648C66.0101 174.648 71.4254 169.232 71.4254 162.552C71.4254 155.872 66.0101 150.457 59.3299 150.457C52.6497 150.457 47.2344 155.872 47.2344 162.552C47.2344 169.232 52.6497 174.648 59.3299 174.648Z" fill="#F2F2F2"/>
<path d="M146.017 199.847C152.698 199.847 158.113 194.431 158.113 187.751C158.113 181.071 152.698 175.656 146.017 175.656C139.337 175.656 133.922 181.071 133.922 187.751C133.922 194.431 139.337 199.847 146.017 199.847Z" fill="#F2F2F2"/>
<path d="M66.9277 0.272376C30.6956 0.528307 1.0292 29.9719 0.514512 66.2012C0.509745 66.5357 0.50755 68.8877 0.507837 71.9638C0.508075 76.4742 2.29985 80.7998 5.48906 83.9892C8.67826 87.1786 13.0037 88.9706 17.5141 88.9712C19.7499 88.9707 21.9638 88.5296 24.0291 87.6732C26.0945 86.8168 27.9708 85.5618 29.5509 83.98C31.1311 82.3981 32.384 80.5204 33.2382 78.4542C34.0924 76.3879 34.531 74.1736 34.529 71.9378C34.5273 69.8452 34.5263 68.3969 34.5263 68.308C34.5251 62.7088 35.9815 57.2057 38.7523 52.3401C41.523 47.4745 45.5126 43.414 50.3286 40.5579C55.1447 37.7019 60.6212 36.1487 66.2195 36.0512C71.8179 35.9537 77.3452 37.3152 82.2578 40.0019C87.1703 42.6885 91.2989 46.6076 94.2373 51.3738C97.1758 56.14 98.823 61.589 99.0168 67.1848C99.2106 72.7807 97.9444 78.3306 95.3427 83.2886C92.741 88.2467 88.8934 92.4421 84.1785 95.4621L84.1844 95.4693C84.1844 95.4693 59.9791 111.052 52.5996 132.429L52.6058 132.43C51.3082 136.81 50.6507 141.353 50.6536 145.921C50.6536 147.798 50.7641 164.226 50.9775 177.56C51.0521 182.16 52.9324 186.547 56.2125 189.774C59.4927 193 63.9098 194.808 68.511 194.807C70.823 194.807 73.1122 194.35 75.2467 193.462C77.3813 192.573 79.3192 191.272 80.9489 189.632C82.5787 187.992 83.868 186.046 84.7429 183.906C85.6177 181.766 86.0607 179.474 86.0465 177.162C85.9724 164.951 85.9323 150.733 85.9323 149.701C85.9323 136.575 98.5949 123.496 108.996 114.968C120.974 105.147 129.593 91.763 133.055 76.6657C133.821 73.5575 134.243 70.3745 134.314 67.174C134.314 58.3475 132.568 49.6082 129.175 41.4596C125.783 33.3111 120.811 25.9143 114.548 19.6956C108.284 13.4769 100.851 8.55908 92.6785 5.22554C84.5057 1.892 75.754 0.208613 66.9277 0.272376Z" fill="#F5915E"/>
<path d="M168.729 103.585C177.079 103.585 183.848 96.8153 183.848 88.4651C183.848 80.1149 177.079 73.3457 168.729 73.3457C160.379 73.3457 153.609 80.1149 153.609 88.4651C153.609 96.8153 160.379 103.585 168.729 103.585Z" fill="#2F2E41"/>
<path d="M140.79 259.382H134.612L131.672 235.549H140.791L140.79 259.382Z" fill="#F1C0A0"/>
<path d="M130.198 257.616H142.114V265.119H122.695C122.695 264.133 122.889 263.158 123.266 262.247C123.643 261.337 124.196 260.51 124.893 259.813C125.589 259.117 126.417 258.564 127.327 258.187C128.237 257.81 129.213 257.616 130.198 257.616Z" fill="#2F2E41"/>
<path d="M188.665 259.382H182.487L179.547 235.549H188.666L188.665 259.382Z" fill="#F1C0A0"/>
<path d="M178.073 257.616H189.989V265.119H170.57C170.57 264.133 170.764 263.158 171.141 262.247C171.518 261.337 172.071 260.51 172.768 259.813C173.464 259.117 174.292 258.564 175.202 258.187C176.112 257.81 177.088 257.616 178.073 257.616Z" fill="#2F2E41"/>
<path d="M166.425 103.673C173.261 103.673 178.803 98.1309 178.803 91.2945C178.803 84.4582 173.261 78.9163 166.425 78.9163C159.589 78.9163 154.047 84.4582 154.047 91.2945C154.047 98.1309 159.589 103.673 166.425 103.673Z" fill="#F1C0A0"/>
<path d="M173.804 143.606L179.343 130.88C180.688 127.895 181.073 124.566 180.446 121.352C179.819 118.138 178.209 115.199 175.84 112.938C175.354 112.457 174.837 112.008 174.293 111.593C171.56 109.455 168.192 108.29 164.722 108.282C162.389 108.291 160.086 108.803 157.969 109.783C157.787 109.864 157.611 109.95 157.43 110.035C157.082 110.202 156.739 110.383 156.407 110.57C154.237 111.815 152.39 113.554 151.016 115.644C149.642 117.735 148.778 120.119 148.494 122.605L146.05 143.086C145.435 144.694 123.502 202.753 131.172 247.078C131.254 247.551 131.485 247.986 131.831 248.319C132.178 248.651 132.621 248.865 133.098 248.927L140.874 249.986C141.442 250.063 142.018 249.923 142.486 249.593C142.955 249.263 143.281 248.767 143.399 248.207L156.447 186.01C156.528 185.624 156.737 185.276 157.039 185.022C157.342 184.768 157.72 184.623 158.115 184.609C158.51 184.596 158.897 184.715 159.216 184.948C159.535 185.181 159.767 185.515 159.874 185.895L178.31 251.301C178.441 251.776 178.725 252.195 179.117 252.494C179.509 252.793 179.989 252.954 180.482 252.954C180.629 252.953 180.776 252.94 180.92 252.914L190.42 251.084C190.972 250.981 191.466 250.675 191.805 250.227C192.143 249.778 192.302 249.22 192.25 248.66C190.854 233.092 183.435 155.111 173.804 143.606Z" fill="#2F2E41"/>
<path d="M118.323 101.596C118.237 102.332 118.314 103.077 118.547 103.781C118.781 104.484 119.166 105.127 119.675 105.665C120.184 106.204 120.805 106.624 121.494 106.896C122.183 107.169 122.923 107.287 123.663 107.242L130.582 123.87L135.816 116.111L128.443 101.511C128.285 100.273 127.679 99.1367 126.74 98.3161C125.8 97.4955 124.593 97.0481 123.345 97.0585C122.098 97.069 120.898 97.5366 119.972 98.3729C119.047 99.2091 118.46 100.356 118.323 101.596Z" fill="#F1C0A0"/>
<path d="M165.741 160.348C166.476 160.26 167.184 160.012 167.813 159.621C168.442 159.23 168.979 158.706 169.383 158.086C169.788 157.465 170.052 156.763 170.157 156.03C170.261 155.296 170.203 154.549 169.987 153.84L184.545 143.237L175.781 139.955L163.3 150.527C162.133 150.968 161.169 151.822 160.59 152.927C160.011 154.032 159.857 155.311 160.158 156.522C160.459 157.732 161.193 158.79 162.222 159.496C163.251 160.201 164.503 160.504 165.741 160.348Z" fill="#F1C0A0"/>
<path d="M142.009 134.955C141.451 134.954 140.894 134.899 140.347 134.791C139.022 134.539 137.781 133.965 136.731 133.12C135.68 132.275 134.854 131.184 134.325 129.945L124.632 118.125C124.427 117.875 124.277 117.584 124.194 117.272C124.111 116.959 124.095 116.633 124.148 116.314C124.201 115.995 124.321 115.692 124.501 115.423C124.681 115.155 124.917 114.928 125.191 114.758L132.088 110.489C132.343 110.331 132.626 110.225 132.922 110.178C133.217 110.13 133.52 110.142 133.811 110.211C134.102 110.281 134.377 110.408 134.618 110.585C134.86 110.761 135.065 110.984 135.221 111.24L142.053 122.496L155.137 112.826C156.178 112.28 157.382 112.127 158.527 112.394C159.673 112.662 160.684 113.333 161.375 114.285C162.067 115.236 162.393 116.405 162.294 117.577C162.195 118.749 161.678 119.846 160.837 120.669L147.778 132.581C146.243 134.102 144.17 134.955 142.009 134.955Z" fill="#2F2E41"/>
<path d="M177.368 152.731C177.351 152.731 177.333 152.731 177.315 152.731C176.997 152.723 176.684 152.649 176.397 152.512C176.109 152.376 175.854 152.181 175.646 151.94L169.515 144.786C169.306 144.543 169.151 144.258 169.061 143.95C168.97 143.642 168.946 143.318 168.99 143.001C169.034 142.683 169.145 142.378 169.315 142.106C169.486 141.834 169.712 141.601 169.979 141.423L181.46 133.769L171.059 121.264C170.454 120.255 170.232 119.063 170.433 117.904C170.635 116.745 171.247 115.697 172.157 114.953C173.068 114.208 174.216 113.815 175.391 113.847C176.567 113.878 177.693 114.332 178.562 115.124L191.203 127.478C192.198 128.387 192.958 129.524 193.417 130.791C193.875 132.058 194.02 133.418 193.838 134.753C193.656 136.088 193.152 137.359 192.371 138.457C191.589 139.555 190.553 140.447 189.351 141.056L179.019 152.019C178.807 152.244 178.551 152.423 178.267 152.546C177.983 152.668 177.677 152.731 177.368 152.731Z" fill="#2F2E41"/>
<path d="M163.277 126.374C163.178 126.374 163.08 126.367 162.983 126.355C162.556 126.303 162.152 126.13 161.821 125.856C161.49 125.581 161.244 125.218 161.113 124.808L156.505 110.682C156.39 110.325 156.407 109.938 156.555 109.593C156.703 109.248 156.97 108.968 157.308 108.805L157.458 108.734C157.593 108.67 157.728 108.606 157.865 108.545C160.013 107.549 162.352 107.029 164.72 107.022C167.795 107.027 170.801 107.931 173.369 109.621C173.714 109.85 173.954 110.205 174.039 110.61C174.124 111.015 174.047 111.437 173.824 111.785L165.18 125.326C164.978 125.647 164.697 125.912 164.364 126.095C164.031 126.279 163.657 126.374 163.277 126.374Z" fill="#E6E6E6"/>
<path d="M180.643 81.7153C183.375 81.7153 185.59 79.5002 185.59 76.7678C185.59 74.0355 183.375 71.8204 180.643 71.8204C177.91 71.8204 175.695 74.0355 175.695 76.7678C175.695 79.5002 177.91 81.7153 180.643 81.7153Z" fill="#2F2E41"/>
<path d="M163.689 71.3298C160.214 71.3298 156.881 72.7104 154.424 75.1677C151.966 77.6251 150.586 80.958 150.586 84.4333V89.9771H157.404L160.666 84.4333L161.644 89.9771H182.337L176.793 84.4333C176.793 80.958 175.412 77.6251 172.955 75.1677C170.498 72.7104 167.165 71.3298 163.689 71.3298Z" fill="#2F2E41"/>
<path d="M183.188 73.379C183.735 71.6683 184.867 70.2052 186.386 69.247C187.906 68.2887 189.714 67.8967 191.493 68.1399C194.646 68.667 197.139 71.2013 198.625 74.0319C200.11 76.8626 200.796 80.0306 201.794 83.0673C202.793 86.1039 204.209 89.1572 206.73 91.1229C209.251 93.0886 213.119 93.6218 215.595 91.5997C215.312 93.7071 214.374 95.6723 212.913 97.2173C211.452 98.7622 209.542 99.8088 207.454 100.209C205.365 100.609 203.204 100.343 201.276 99.4471C199.347 98.5516 197.749 97.0725 196.707 95.2189C195.401 92.8947 195.063 90.1706 194.676 87.5327C194.289 84.8948 193.785 82.1654 192.226 80.003C190.666 77.8406 187.746 76.4283 185.269 77.4132L183.188 73.379Z" fill="#2F2E41"/>
<path d="M22.3196 80.9269C17.8093 80.9263 13.4838 79.1343 10.2946 75.9449C7.10532 72.7555 5.31353 68.4299 5.31326 63.9195C5.31301 60.8434 5.31523 58.4914 5.3199 58.1569C5.46321 47.6204 8.11677 37.2699 13.0605 27.9641C4.9381 39.0834 0.472029 52.452 0.2801 66.2206C0.275423 66.5551 0.273209 68.9071 0.273456 71.9832C0.273723 76.4936 2.06552 80.8192 5.25475 84.0086C8.44398 87.198 12.7695 88.99 17.2798 88.9905C20.9861 88.9891 24.5907 87.778 27.5458 85.5412C30.501 83.3044 32.6454 80.1641 33.653 76.5974C30.539 79.3898 26.5023 80.9319 22.3196 80.9269Z" fill="#3F3D56"/>
<path d="M68.0815 36.1083C73.2958 36.3574 78.3717 37.8682 82.8735 40.5111C87.3753 43.1539 91.1684 46.8499 93.9271 51.2816C96.6858 55.7134 98.3278 60.7484 98.7119 65.9545C99.0961 71.1605 98.211 76.3821 96.1326 81.1707C99.1388 77.6401 101.348 73.5029 102.611 69.041C103.873 64.579 104.158 59.8974 103.447 55.3152C102.736 50.733 101.046 46.358 98.4905 42.4885C95.9353 38.6189 92.5759 35.3458 88.6411 32.8923C84.7064 30.4388 80.2888 28.8625 75.6897 28.271C71.0905 27.6796 66.4179 28.0867 61.9904 29.4648C57.5628 30.8428 53.4845 33.1593 50.0334 36.2564C46.5823 39.3535 43.8395 43.1583 41.9922 47.4115C45.185 43.6555 49.1979 40.683 53.7213 38.7233C58.2446 36.7635 63.1577 35.8689 68.0815 36.1083Z" fill="#3F3D56"/>
<path d="M73.319 186.763C68.7178 186.764 64.3007 184.956 61.0206 181.729C57.7404 178.503 55.8602 174.116 55.7855 169.515C55.5722 156.182 55.4617 139.754 55.4617 137.877C55.4587 133.309 56.1162 128.765 57.4139 124.386L57.4077 124.385C58.174 122.186 59.0994 120.047 60.1767 117.984C56.8697 122.39 54.2379 127.266 52.3679 132.448L52.3741 132.45C51.0764 136.829 50.4189 141.373 50.4219 145.94C50.4219 147.818 50.5324 164.245 50.7457 177.579C50.8204 182.179 52.7006 186.566 55.9808 189.793C59.2609 193.02 63.678 194.827 68.2792 194.826C72.0729 194.826 75.7642 193.595 78.7993 191.319C81.8344 189.043 84.0498 185.844 85.1131 182.202C81.8892 185.142 77.6819 186.769 73.319 186.763Z" fill="#3F3D56"/>
<path d="M64.3024 259.71C61.0092 258.275 58.0943 256.095 55.7878 253.341C53.4814 250.588 51.8466 247.335 51.0123 243.841C50.178 240.348 50.1672 236.708 50.9806 233.209C51.794 229.71 53.4094 226.448 55.6993 223.681C53.0443 225.619 50.832 228.1 49.2091 230.959C47.5862 233.818 46.59 236.989 46.2865 240.263C45.983 243.536 46.3792 246.837 47.4487 249.945C48.5183 253.054 50.2368 255.899 52.4901 258.293C54.7435 260.686 57.4801 262.573 60.5185 263.829C63.5569 265.084 66.8275 265.678 70.1132 265.573C73.3989 265.467 76.6246 264.664 79.5761 263.217C82.5277 261.769 85.1377 259.71 87.2328 257.177C83.965 259.566 80.1285 261.056 76.1053 261.501C72.0821 261.945 68.0127 261.327 64.3024 259.71Z" fill="#3F3D56"/>
</g>
<defs>
<clipPath id="clip0_654_2319">
<rect width="216" height="266" fill="white"/>
</clipPath>
</defs>
</svg>
