<svg width="200" height="200" viewBox="0 0 200 200" fill="none" xmlns="http://www.w3.org/2000/svg">
<circle cx="100" cy="100" r="100" fill="#FFBF00"/>
<circle cx="100" cy="100" r="92" stroke="white" stroke-width="2"/>
<path d="M49.14 63.64H63.06V65.98H49.14V63.64ZM48.32 69.54H62.3V71.84H48.32V69.54ZM46 75.88H64.08V78.22H46V75.88ZM53.78 60.02H56.28V77.04H53.78V60.02ZM49.16 60.26L51.64 60.82C50.76 63.92 49.3 67 47.74 68.92C47.26 68.5 46.2 67.8 45.58 67.46C47.16 65.78 48.44 63.02 49.16 60.26ZM74.08 66.48H86.76V68.6H74.08V66.48ZM75.04 62.3H85.84V64.34H75.04V62.3ZM80.5 71.02H85.96V73.08H80.5V71.02ZM79.42 68.38H81.7V77.04L79.42 76.16V68.38ZM79.26 60H81.54V67.82H79.26V60ZM77.1 72.62C78.16 75.76 80.46 76.34 83.22 76.36C83.88 76.36 86.16 76.36 87.02 76.34C86.72 76.86 86.42 77.9 86.32 78.52H83.02C79.36 78.52 76.74 77.56 75.28 73.24L77.1 72.62ZM75.28 70L77.6 70.18C77.32 73.9 76.52 76.92 74.7 78.86C74.34 78.46 73.38 77.68 72.86 77.34C74.5 75.78 75.1 73.12 75.28 70ZM72.18 64.32L74.3 65.1C73 67.54 70.92 70.1 68.96 71.72C68.74 71.2 68.1 70 67.7 69.48C69.4 68.24 71.14 66.3 72.18 64.32ZM71.82 60.02L73.94 60.86C72.7 62.6 70.82 64.54 69.14 65.78C68.84 65.3 68.26 64.46 67.88 64.02C69.32 63.02 71 61.34 71.82 60.02ZM70.54 68.64L72.58 66.6L72.78 66.7V78.82H70.54V68.64ZM96.14 61.66H108.56V63.74H96.14V61.66ZM95.52 65.22H109.14V67.32H95.52V65.22ZM99.74 73.78H104.84V75.52H99.74V73.78ZM98.7 60.02H100.94V67H98.7V60.02ZM103.62 60.02H105.94V67H103.62V60.02ZM99.06 71.42H100.48V76.7H99.06V71.42ZM104.12 71.42H105.5V76.2H104.12V71.42ZM106.42 68.52H108.66V76.52C108.66 77.54 108.48 78.1 107.8 78.44C107.12 78.74 106.14 78.76 104.8 78.76C104.72 78.18 104.48 77.34 104.22 76.76C105 76.8 105.84 76.8 106.1 76.8C106.34 76.8 106.42 76.72 106.42 76.48V68.52ZM96.1 68.52H107.26V70.6H98.22V78.78H96.1V68.52ZM91.26 61.92L92.68 60.2C93.86 60.72 95.38 61.62 96.14 62.32L94.64 64.22C93.96 63.5 92.46 62.5 91.26 61.92ZM90.3 67.44L91.58 65.62C92.78 66.02 94.4 66.76 95.22 67.4L93.86 69.42C93.12 68.78 91.54 67.94 90.3 67.44ZM90.8 77.14C91.72 75.6 93.02 73.08 94.04 70.72L95.92 72.16C95.04 74.3 93.98 76.62 92.96 78.58L90.8 77.14ZM101.12 66.68H103.4V70.1H103.14V74.98H101.38V70.1H101.12V66.68ZM122.2 70.64H130.14V72.88H122.2V70.64ZM118.08 71.78C119.54 75.6 122.84 76.32 126.7 76.32C127.58 76.34 130.54 76.32 131.66 76.28C131.32 76.84 130.96 77.94 130.84 78.62H126.56C121.68 78.62 118.12 77.54 116.12 72.52L118.08 71.78ZM121.12 67.6H123.6V77.46L121.12 76.68V67.6ZM117.72 63.16V65.9H126.96V63.16H117.72ZM115.34 60.88H129.5V68.18H115.34V60.88ZM116.2 69.38L118.72 69.68C118.16 73 117.04 76.74 114.58 78.74C114.18 78.26 113.38 77.48 112.88 77.12C115.02 75.4 115.92 72.14 116.2 69.38ZM139.6 65.64H153.5V67.54H139.6V65.64ZM139.76 71.48H150.74V73.36H139.76V71.48ZM142.32 64.32H144.58V68.86H148.24V64.32H150.6V70.68H142.32V64.32ZM150.12 71.48H150.58L151 71.38L152.5 72.14C150.34 76.48 145.5 78.14 139.88 78.84C139.7 78.24 139.26 77.34 138.88 76.84C144 76.4 148.5 74.98 150.12 71.78V71.48ZM143.86 72.94C145.66 75.18 149.4 76.4 154 76.8C153.5 77.3 152.9 78.26 152.6 78.86C147.74 78.26 144.04 76.66 141.8 73.68L143.86 72.94ZM143.98 60.02H146.48V63.02H143.98V60.02ZM137.98 61.82H153.6V63.96H137.98V61.82ZM136.8 61.82H139.1V67.46C139.1 70.72 138.8 75.64 136.98 78.74C136.56 78.34 135.56 77.68 135 77.42C136.68 74.58 136.8 70.4 136.8 67.46V61.82Z" fill="white"/>
<path d="M71.8561 123.281V130.25H66.7311V140H58.0124V130.25H40.0749V122.469L56.7311 94.9688H66.7311V123.281H71.8561ZM46.6686 123.281H58.0124V103.719L46.6686 123.281ZM82.9424 137.09H85.9014V140H82.9424V137.09ZM95.2525 137.156C92.6484 134.49 91.3463 131.25 91.3463 127.438C91.3463 124.896 91.9192 122.594 93.065 120.531C94.2317 118.469 95.9296 116.917 98.1588 115.875C95.9713 114.417 94.5442 112.844 93.8775 111.156C93.2317 109.448 92.9088 107.854 92.9088 106.375C92.9088 103.083 94.1484 100.281 96.6275 97.9688C99.1067 95.6354 102.607 94.4688 107.128 94.4688C111.648 94.4688 115.148 95.6354 117.628 97.9688C120.107 100.281 121.346 103.083 121.346 106.375C121.346 107.854 121.013 109.448 120.346 111.156C119.7 112.844 118.284 114.312 116.096 115.562C118.325 116.812 120.003 118.469 121.128 120.531C122.253 122.594 122.815 124.896 122.815 127.438C122.815 131.25 121.398 134.5 118.565 137.188C115.753 139.854 111.815 141.188 106.753 141.188C101.69 141.188 97.8567 139.844 95.2525 137.156ZM100.596 126.844C100.596 129.073 101.169 130.802 102.315 132.031C103.482 133.26 105.086 133.875 107.128 133.875C109.169 133.875 110.763 133.26 111.909 132.031C113.075 130.802 113.659 129.073 113.659 126.844C113.659 124.531 113.065 122.781 111.878 121.594C110.711 120.385 109.128 119.781 107.128 119.781C105.128 119.781 103.534 120.385 102.346 121.594C101.18 122.781 100.596 124.531 100.596 126.844ZM102.94 111.406C103.94 112.448 105.336 112.969 107.128 112.969C108.94 112.969 110.336 112.448 111.315 111.406C112.315 110.365 112.815 109.021 112.815 107.375C112.815 105.583 112.315 104.188 111.315 103.188C110.336 102.167 108.94 101.656 107.128 101.656C105.336 101.656 103.93 102.167 102.909 103.188C101.909 104.188 101.409 105.583 101.409 107.375C101.409 109.021 101.919 110.365 102.94 111.406ZM131.323 140L139.687 117.749H143.159L134.766 140H131.323ZM152.911 129.453C152.404 129.453 151.964 129.517 151.593 129.644C150.939 129.878 150.446 130.312 150.114 130.947L146.364 130.771L147.858 119.038H159.562V122.583H150.875L150.114 127.227C150.758 126.807 151.261 126.528 151.622 126.392C152.228 126.167 152.965 126.055 153.834 126.055C155.592 126.055 157.125 126.646 158.434 127.827C159.743 129.009 160.397 130.728 160.397 132.983C160.397 134.946 159.767 136.699 158.507 138.242C157.247 139.785 155.363 140.557 152.853 140.557C150.831 140.557 149.171 140.015 147.872 138.931C146.574 137.847 145.851 136.309 145.704 134.316H149.865C150.031 135.225 150.348 135.928 150.817 136.426C151.285 136.914 151.969 137.158 152.868 137.158C153.903 137.158 154.689 136.797 155.226 136.074C155.773 135.342 156.046 134.424 156.046 133.32C156.046 132.236 155.792 131.323 155.284 130.581C154.777 129.829 153.986 129.453 152.911 129.453Z" fill="white"/>
</svg>
