<svg width="200" height="200" viewBox="0 0 200 200" fill="none" xmlns="http://www.w3.org/2000/svg">
<circle cx="100" cy="100" r="100" fill="#FFBF00"/>
<circle cx="100" cy="100" r="92" stroke="white" stroke-width="2"/>
<path d="M53.78 58.04H56.18V60.7H53.78V58.04ZM53.72 68.94H56.14V76.78H53.72V68.94ZM46.42 59.36H63.62V62.44H61.3V61.34H48.64V62.44H46.42V59.36ZM46.28 62.82H63.76V64.7H46.28V62.82ZM45.9 70.32H64.12V72.3H45.9V70.32ZM52.82 61.22L55.06 61.88C53.76 63.68 52.1 65.8 50.94 67.18L48.66 66.56C49.92 65.16 51.62 62.94 52.82 61.22ZM50.28 66.66L51.6 65.24C55.12 65.86 60.16 67.16 62.9 68.22L61.48 69.9C58.98 68.84 53.98 67.42 50.28 66.66ZM53.12 71.46L54.9 72.24C53.06 74.26 49.96 75.86 46.9 76.6C46.58 76.04 45.9 75.12 45.42 74.66C48.4 74.14 51.54 72.94 53.12 71.46ZM56.72 71.4C58.4 72.86 61.62 74.06 64.66 74.56C64.14 75.06 63.46 75.98 63.14 76.58C60.08 75.84 56.9 74.22 55 72.16L56.72 71.4ZM58.02 63.94H60.54C59.26 67.56 56.52 69.22 47.56 69.84C47.48 69.28 47.1 68.46 46.78 67.98C55.08 67.56 57.04 66.36 58.02 63.94ZM79.14 58.28H81.56V76.78H79.14V58.28ZM75.74 59.12L78.04 59.6C77.48 62.3 76.52 65.1 75.46 66.86C74.98 66.5 73.94 65.96 73.36 65.7C74.44 64.12 75.28 61.58 75.74 59.12ZM76.5 61.9H85.76V64.24H75.92L76.5 61.9ZM73.72 67.7H86.72V70.06H73.72V67.7ZM72.24 58.1L74.5 58.8C73.22 62.2 71.18 65.8 69.04 68.1C68.82 67.52 68.16 66.2 67.76 65.62C69.54 63.8 71.24 60.96 72.24 58.1ZM70.26 63.62L72.54 61.34V61.36V76.78H70.26V63.62ZM90.42 59.36L92.1 58.12C95.7 61.38 96.16 64.98 96.16 68.94C96.16 71.76 95.98 74.6 95.08 75.84C94.78 76.24 94.34 76.52 93.86 76.62C93.14 76.8 92.34 76.82 91.52 76.78C91.52 76.02 91.34 75.16 90.94 74.5C91.78 74.56 92.38 74.56 92.74 74.52C93.02 74.48 93.2 74.38 93.34 74.18C93.76 73.64 93.9 71.38 93.9 68.9C93.9 65.16 93.42 62.14 90.42 59.36ZM94.08 65.48L95.8 66.5C94.9 68.36 93.18 70.62 91.68 71.9C91.32 71.34 90.66 70.56 90.14 70.12C91.6 69.14 93.26 67.18 94.08 65.48ZM94.9 58.22L97 59.24C95.68 61.64 93.74 63.98 91.78 65.54C91.44 65.06 90.68 64.36 90.16 63.98C92.04 62.58 93.86 60.3 94.9 58.22ZM96.86 59.36H108.98V61.14H96.86V59.36ZM97.94 68.6H108.88V70.02H97.94V68.6ZM97.28 70.66H106.8V72.36H97.28V70.66ZM98.74 64.94H107.78V66.06H98.74V64.94ZM98.74 66.76H107.8V67.88H98.74V66.76ZM99.4 57.96H101.56V61.94H99.4V57.96ZM102.3 63.62H104.4V69.36H102.3V63.62ZM104.1 57.96H106.28V61.94H104.1V57.96ZM98.66 61.36L100.54 61.88C99.78 63.76 98.5 65.6 97.18 66.78C96.9 66.4 96.22 65.62 95.8 65.26C97 64.32 98.06 62.86 98.66 61.36ZM97.94 64.2L100 63.22V69.64H97.94V64.2ZM98.9 62.86H108.32V64.3H98.18L98.9 62.86ZM102.82 61.54L105.1 61.92C104.68 62.68 104.28 63.34 103.96 63.82L102.16 63.44C102.4 62.86 102.7 62.08 102.82 61.54ZM106.24 70.66H106.68L107.06 70.62L108.34 71.38C106.36 74.82 101.96 76.26 97.1 76.84C96.92 76.34 96.44 75.44 96.1 75C100.72 74.64 104.72 73.54 106.24 70.96V70.66ZM100.74 72.12C102.3 73.78 105.64 74.66 109.46 74.94C109 75.38 108.44 76.26 108.16 76.82C104.1 76.36 100.78 75.1 98.82 72.8L100.74 72.12ZM122.6 62.86V63.88H127.82V62.86H122.6ZM122.6 60.28V61.28H127.82V60.28H122.6ZM120.28 58.6H130.24V65.56H120.28V58.6ZM119.28 66.44H130.9V68.4H119.28V66.44ZM118.76 69.54H131.3V71.58H118.76V69.54ZM126.14 68.16H128.56V74.42C128.56 75.52 128.36 76.1 127.58 76.44C126.84 76.78 125.84 76.8 124.46 76.8C124.36 76.14 124.02 75.26 123.72 74.66C124.56 74.7 125.5 74.7 125.76 74.68C126.06 74.66 126.14 74.6 126.14 74.36V68.16ZM120.1 72.56L121.76 71.44C122.62 72.22 123.68 73.34 124.2 74.08L122.4 75.36C121.96 74.6 120.92 73.42 120.1 72.56ZM117.36 62.44L119.46 63.32C118 65.78 115.66 68.42 113.56 70.06C113.4 69.54 112.8 68.18 112.44 67.6C114.2 66.36 116.16 64.38 117.36 62.44ZM116.82 58.04L119.1 58.96C117.76 60.82 115.72 62.78 113.84 64C113.58 63.46 113.02 62.48 112.64 61.98C114.2 61.02 115.98 59.38 116.82 58.04ZM115.38 66.9L117.6 64.68L117.7 64.74V76.8H115.38V66.9ZM143.3 58.04H145.76V60.84H143.3V58.04ZM143.3 69.72H145.76V76.82H143.3V69.72ZM135.56 71.02H153.64V73.22H135.56V71.02ZM136.24 59.96H153.02V62.14H136.24V59.96ZM151 62.38L153.16 63.42C152.14 64.36 150.96 65.26 150.06 65.88L148.32 64.94C149.2 64.26 150.36 63.2 151 62.38ZM143.1 61.54L145.14 62.28C144.32 63.34 143.44 64.44 142.74 65.18L141.24 64.52C141.88 63.7 142.66 62.42 143.1 61.54ZM146.12 63L147.98 63.84C146.3 65.8 144.1 68.04 142.36 69.42L140.96 68.66C142.7 67.18 144.84 64.8 146.12 63ZM140.26 64.74L141.36 63.38C142.5 64.06 144.08 65.1 144.84 65.82L143.66 67.36C142.96 66.62 141.42 65.5 140.26 64.74ZM140.08 67.92C142.06 67.86 145.04 67.74 147.98 67.6L147.96 69.28C145.26 69.52 142.52 69.72 140.4 69.88L140.08 67.92ZM145.58 66.58L147.26 65.86C148.14 66.98 149.1 68.5 149.46 69.52L147.64 70.36C147.32 69.34 146.42 67.74 145.58 66.58ZM135.34 68.3C136.62 67.88 138.56 67.14 140.42 66.42L140.84 68.2C139.36 68.92 137.78 69.66 136.48 70.22L135.34 68.3ZM135.96 63.88L137.54 62.6C138.58 63.16 139.98 64.04 140.66 64.68L138.98 66.12C138.36 65.46 137.02 64.5 135.96 63.88ZM147.88 67.58L149.5 66.28C150.88 66.98 152.76 68.08 153.72 68.86L151.98 70.3C151.12 69.52 149.28 68.34 147.88 67.58Z" fill="white"/>
<path d="M43.6268 137.23C40.4432 137.23 37.5818 136.293 35.0428 134.418C32.5037 132.523 31.0486 129.77 30.6775 126.156H38.9978C39.1932 127.406 39.7205 128.422 40.5799 129.203C41.4393 129.984 42.5818 130.375 44.0076 130.375C46.7615 130.375 48.6951 128.852 49.8084 125.805C50.4139 124.125 50.7947 121.674 50.951 118.451C50.1893 119.408 49.3787 120.141 48.5193 120.648C46.9568 121.586 45.033 122.055 42.7478 122.055C39.3689 122.055 36.3709 120.893 33.7537 118.568C31.1365 116.225 29.8279 112.855 29.8279 108.461C29.8279 103.91 31.1365 100.229 33.7537 97.416C36.3904 94.584 39.8084 93.168 44.0076 93.168C50.4725 93.168 54.9061 96.0293 57.3084 101.752C58.6756 104.994 59.3592 109.262 59.3592 114.555C59.3592 119.691 58.7049 123.979 57.3963 127.416C54.8963 133.959 50.3064 137.23 43.6268 137.23ZM40.6971 101.342C39.0955 102.592 38.2947 104.711 38.2947 107.699C38.2947 110.219 38.8025 112.113 39.8182 113.383C40.8533 114.633 42.4353 115.258 44.5643 115.258C45.7166 115.258 46.8006 114.926 47.8162 114.262C49.7107 113.051 50.658 110.951 50.658 107.963C50.658 105.561 50.0916 103.656 48.9588 102.25C47.8455 100.844 46.3123 100.141 44.3592 100.141C42.9334 100.141 41.7127 100.541 40.6971 101.342ZM73.8834 133.334C71.442 130.834 70.2213 127.797 70.2213 124.223C70.2213 121.84 70.7584 119.682 71.8326 117.748C72.9264 115.814 74.5182 114.359 76.608 113.383C74.5572 112.016 73.2193 110.541 72.5943 108.959C71.9889 107.357 71.6861 105.863 71.6861 104.477C71.6861 101.391 72.8482 98.7637 75.1725 96.5957C77.4967 94.4082 80.7779 93.3145 85.0162 93.3145C89.2545 93.3145 92.5357 94.4082 94.86 96.5957C97.1842 98.7637 98.3463 101.391 98.3463 104.477C98.3463 105.863 98.0338 107.357 97.4088 108.959C96.8033 110.541 95.4752 111.918 93.4244 113.09C95.5143 114.262 97.0865 115.814 98.1412 117.748C99.1959 119.682 99.7232 121.84 99.7232 124.223C99.7232 127.797 98.3951 130.844 95.7389 133.363C93.1021 135.863 89.4107 137.113 84.6646 137.113C79.9186 137.113 76.3248 135.854 73.8834 133.334ZM78.8932 123.666C78.8932 125.756 79.4303 127.377 80.5045 128.529C81.5982 129.682 83.1021 130.258 85.0162 130.258C86.9303 130.258 88.4244 129.682 89.4986 128.529C90.5924 127.377 91.1393 125.756 91.1393 123.666C91.1393 121.498 90.5826 119.857 89.4693 118.744C88.3756 117.611 86.8912 117.045 85.0162 117.045C83.1412 117.045 81.6471 117.611 80.5338 118.744C79.44 119.857 78.8932 121.498 78.8932 123.666ZM81.0904 109.193C82.0279 110.17 83.3365 110.658 85.0162 110.658C86.7154 110.658 88.024 110.17 88.942 109.193C89.8795 108.217 90.3482 106.957 90.3482 105.414C90.3482 103.734 89.8795 102.426 88.942 101.488C88.024 100.531 86.7154 100.053 85.0162 100.053C83.3365 100.053 82.0182 100.531 81.0611 101.488C80.1236 102.426 79.6549 103.734 79.6549 105.414C79.6549 106.957 80.1334 108.217 81.0904 109.193ZM110.488 133.09H113.447V136H110.488V133.09ZM138.122 125.551V129.906H134.919V136H129.47V129.906H118.259V125.043L128.669 107.855H134.919V125.551H138.122ZM122.38 125.551H129.47V113.324L122.38 125.551ZM159.196 130.976C159.196 129.462 159.729 128.173 160.793 127.108C161.858 126.054 163.142 125.526 164.646 125.526C166.15 125.526 167.434 126.059 168.498 127.123C169.563 128.188 170.095 129.472 170.095 130.976C170.095 132.479 169.563 133.764 168.498 134.828C167.434 135.893 166.15 136.425 164.646 136.425C163.142 136.425 161.858 135.893 160.793 134.828C159.729 133.764 159.196 132.479 159.196 130.976ZM146.555 124.164C145.49 123.1 144.958 121.815 144.958 120.312C144.958 118.808 145.49 117.523 146.555 116.459C147.619 115.395 148.904 114.862 150.407 114.862C151.911 114.862 153.195 115.395 154.26 116.459C155.324 117.523 155.857 118.808 155.857 120.312C155.857 121.815 155.324 123.1 154.26 124.164C153.205 125.229 151.921 125.761 150.407 125.761C148.904 125.761 147.619 125.229 146.555 124.164ZM152.707 136.557H150.437L162.317 114.76H164.543L152.707 136.557ZM163.005 132.616C163.454 133.075 164.001 133.305 164.646 133.305C165.29 133.305 165.837 133.08 166.286 132.631C166.745 132.172 166.975 131.62 166.975 130.976C166.975 130.331 166.745 129.784 166.286 129.335C165.837 128.876 165.29 128.646 164.646 128.646C164.001 128.646 163.449 128.876 162.99 129.335C162.541 129.784 162.317 130.331 162.317 130.976C162.317 131.62 162.546 132.167 163.005 132.616ZM148.767 121.952C149.216 122.411 149.763 122.641 150.407 122.641C151.052 122.641 151.599 122.416 152.048 121.967C152.507 121.508 152.737 120.956 152.737 120.312C152.737 119.667 152.507 119.12 152.048 118.671C151.599 118.212 151.052 117.982 150.407 117.982C149.763 117.982 149.211 118.212 148.752 118.671C148.303 119.12 148.078 119.667 148.078 120.312C148.078 120.956 148.308 121.503 148.767 121.952Z" fill="white"/>
</svg>
