<svg width="200" height="200" viewBox="0 0 200 200" fill="none" xmlns="http://www.w3.org/2000/svg">
<circle cx="100" cy="100" r="100" fill="#FFBF00"/>
<circle cx="100" cy="100" r="92" stroke="white" stroke-width="2"/>
<path d="M68.98 63.54L71.38 64.1C70.64 65.86 69.8 67.82 69.12 69.08L67.32 68.54C67.94 67.2 68.64 65.06 68.98 63.54ZM71.3 66.24L73.12 65.34C74.2 66.68 75.4 68.5 75.9 69.74L73.94 70.76C73.5 69.54 72.36 67.64 71.3 66.24ZM72.44 73.4L74.28 72.5C75.34 73.92 76.34 75.76 76.62 77.1L74.64 78.1C74.4 76.8 73.46 74.86 72.44 73.4ZM65.56 67.74C67.66 67.68 70.92 67.54 74.06 67.38L74.04 69.26C71.18 69.5 68.18 69.74 65.96 69.9L65.56 67.74ZM67.58 60.32L69.84 60.88C69.1 62.9 67.82 64.82 66.48 66.06C66.06 65.64 65.14 64.94 64.62 64.6C65.92 63.6 67 61.98 67.58 60.32ZM73.18 60.3C73.94 61.64 75.4 63.18 76.62 64.06C76.1 64.46 75.34 65.26 74.98 65.8C73.7 64.68 72.14 62.74 71.2 61.12L73.18 60.3ZM68.06 70.92L69.54 69.62C70.86 70.22 72.24 71.26 72.96 72.1L71.4 73.54C70.72 72.64 69.3 71.54 68.06 70.92ZM67.94 72.46H70.12V76.18C70.12 76.7 70.18 76.76 70.52 76.76C70.66 76.76 71.26 76.76 71.44 76.76C71.78 76.76 71.86 76.54 71.9 74.84C72.32 75.2 73.26 75.54 73.86 75.68C73.64 78.18 73.06 78.8 71.7 78.8C71.34 78.8 70.5 78.8 70.14 78.8C68.3 78.8 67.94 78.16 67.94 76.2V72.46ZM65.84 72.88L67.78 73.2C67.58 74.86 67.08 76.76 66.32 77.96L64.44 77.14C65.12 76.16 65.64 74.4 65.84 72.88ZM60.62 60L62.68 60.78C61.86 62.32 60.92 64.1 60.18 65.22L58.58 64.54C59.3 63.34 60.16 61.4 60.62 60ZM62.84 62.42L64.78 63.3C63.32 65.56 61.38 68.34 59.84 70.06L58.46 69.28C59.96 67.48 61.8 64.56 62.84 62.42ZM57.52 64.68L58.7 63.06C59.72 64.02 60.94 65.32 61.42 66.24L60.14 68.08C59.68 67.12 58.52 65.7 57.52 64.68ZM62.18 67.18L63.84 66.48C64.66 67.82 65.48 69.58 65.74 70.74L63.94 71.56C63.7 70.4 62.96 68.56 62.18 67.18ZM57.46 68.84C59.22 68.74 61.82 68.54 64.36 68.36L64.4 70.2C62.08 70.48 59.66 70.7 57.8 70.9L57.46 68.84ZM62.64 72.26L64.36 71.72C64.84 72.88 65.32 74.4 65.54 75.42L63.72 76.06C63.56 75.02 63.08 73.46 62.64 72.26ZM58.3 71.74L60.22 72.08C60 73.98 59.58 75.98 59.02 77.26C58.62 77 57.74 76.6 57.26 76.42C57.84 75.24 58.14 73.44 58.3 71.74ZM60.52 69.84H62.58V78.78H60.52V69.84ZM80.64 65.76H98.18V70.14H95.82V67.84H82.88V70.14H80.64V65.76ZM83.54 69.38H94.08V71.58H83.54V69.38ZM95.82 59.9L97.44 61.84C92.92 62.72 86.68 63.16 81.36 63.32C81.32 62.72 81.04 61.8 80.82 61.28C86.12 61.1 92.14 60.62 95.82 59.9ZM82.58 63.7L84.68 63.12C85.14 63.84 85.64 64.8 85.82 65.46L83.62 66.12C83.46 65.46 83 64.46 82.58 63.7ZM87.86 63.28L89.98 62.8C90.4 63.6 90.8 64.68 90.9 65.4L88.66 65.94C88.58 65.24 88.24 64.12 87.86 63.28ZM94.22 62.76L96.76 63.36C96.06 64.6 95.26 65.9 94.66 66.76L92.7 66.18C93.24 65.22 93.88 63.8 94.22 62.76ZM93.2 69.38H93.7L94.12 69.3L95.74 70.26C93.36 75.5 87.88 77.72 81.58 78.62C81.34 78.02 80.66 76.96 80.18 76.46C86.34 75.84 91.4 74.02 93.2 69.76V69.38ZM85.9 71C88.14 74.04 92.72 75.78 98.54 76.32C98.04 76.86 97.38 77.9 97.08 78.58C91.06 77.8 86.6 75.7 83.8 71.86L85.9 71ZM109.88 61.42H120.86V63.12H109.88V61.42ZM109.38 66.44H121.22V68.24H109.38V66.44ZM109.34 73.98H121.28V75.86H109.34V73.98ZM111.4 71.56H119.4V73.04H111.4V71.56ZM110.26 63.92H120.44V65.58H110.26V63.92ZM111.98 60H114.12V67.24H111.98V60ZM116.44 60H118.6V67.24H116.44V60ZM114.24 67.34H116.22V75.1H114.24V67.34ZM118.08 68.98H120.26V76.7C120.26 77.68 120.06 78.18 119.38 78.5C118.7 78.78 117.72 78.8 116.38 78.8C116.3 78.24 116.06 77.48 115.82 76.96C116.6 77 117.5 77 117.74 76.98C118 76.96 118.08 76.9 118.08 76.66V68.98ZM110.34 68.98H118.88V70.64H112.36V78.82H110.34V68.98ZM103.28 66.3H108.78V68.1H103.28V66.3ZM103.38 60.64H108.7V62.46H103.38V60.64ZM103.28 69.1H108.78V70.9H103.28V69.1ZM102.38 63.42H109.36V65.3H102.38V63.42ZM104.38 71.92H108.86V78H104.38V76.12H106.86V73.82H104.38V71.92ZM103.22 71.92H105.18V78.8H103.22V71.92ZM128.34 63.64H142.26V65.98H128.34V63.64ZM127.52 69.54H141.5V71.84H127.52V69.54ZM125.2 75.88H143.28V78.22H125.2V75.88ZM132.98 60.02H135.48V77.04H132.98V60.02ZM128.36 60.26L130.84 60.82C129.96 63.92 128.5 67 126.94 68.92C126.46 68.5 125.4 67.8 124.78 67.46C126.36 65.78 127.64 63.02 128.36 60.26Z" fill="white"/>
<path d="M31.04 108.49C30.3369 109.427 30 110.68 30.0293 112.247H24.1846C24.2432 110.665 24.5142 109.164 24.9976 107.743C25.5103 106.498 26.3159 105.348 27.4146 104.293C28.2349 103.546 29.209 102.975 30.3369 102.579C31.4648 102.184 32.8491 101.986 34.4897 101.986C37.5366 101.986 39.9902 102.777 41.8506 104.359C43.7256 105.926 44.6631 108.036 44.6631 110.687C44.6631 112.562 44.1064 114.144 42.9932 115.433C42.29 116.239 41.5576 116.788 40.7959 117.081C41.3672 117.081 42.1875 117.572 43.2568 118.553C44.8535 120.033 45.6519 122.054 45.6519 124.618C45.6519 127.313 44.7144 129.686 42.8394 131.737C40.979 133.773 38.2178 134.791 34.5557 134.791C30.0439 134.791 26.9092 133.319 25.1514 130.375C24.2285 128.807 23.7158 126.756 23.6133 124.222H29.7656C29.7656 125.497 29.9707 126.551 30.3809 127.386C31.1426 128.924 32.5269 129.693 34.5337 129.693C35.7642 129.693 36.8335 129.276 37.7417 128.441C38.6646 127.591 39.126 126.375 39.126 124.793C39.126 122.699 38.2764 121.3 36.5771 120.597C35.6104 120.201 34.0869 120.003 32.0068 120.003V115.521C34.043 115.492 35.4639 115.294 36.2695 114.928C37.6611 114.312 38.3569 113.067 38.3569 111.192C38.3569 109.977 37.998 108.988 37.2803 108.226C36.5771 107.464 35.5811 107.083 34.292 107.083C32.8125 107.083 31.7285 107.552 31.04 108.49ZM65.2682 134.791C61.2105 134.791 58.3614 133.37 56.7208 130.528C55.0948 127.687 54.2818 123.636 54.2818 118.377C54.2818 113.119 55.0948 109.061 56.7208 106.205C58.3614 103.348 61.2105 101.92 65.2682 101.92C69.3258 101.92 72.1749 103.348 73.8155 106.205C75.4415 109.061 76.2545 113.119 76.2545 118.377C76.2545 123.636 75.4342 127.687 73.7936 130.528C72.1676 133.37 69.3258 134.791 65.2682 134.791ZM68.9376 126.771C69.5089 124.837 69.7945 122.04 69.7945 118.377C69.7945 114.54 69.5016 111.698 68.9156 109.852C68.3443 108.006 67.1285 107.083 65.2682 107.083C63.4078 107.083 62.1773 108.006 61.5768 109.852C60.9762 111.698 60.6759 114.54 60.6759 118.377C60.6759 122.04 60.9762 124.845 61.5768 126.793C62.1773 128.727 63.4078 129.693 65.2682 129.693C67.1285 129.693 68.3517 128.719 68.9376 126.771ZM95.717 134.791C91.6594 134.791 88.8103 133.37 87.1696 130.528C85.5437 127.687 84.7307 123.636 84.7307 118.377C84.7307 113.119 85.5437 109.061 87.1696 106.205C88.8103 103.348 91.6594 101.92 95.717 101.92C99.7746 101.92 102.624 103.348 104.264 106.205C105.89 109.061 106.703 113.119 106.703 118.377C106.703 123.636 105.883 127.687 104.242 130.528C102.616 133.37 99.7746 134.791 95.717 134.791ZM99.3864 126.771C99.9577 124.837 100.243 122.04 100.243 118.377C100.243 114.54 99.9504 111.698 99.3645 109.852C98.7932 108.006 97.5773 107.083 95.717 107.083C93.8566 107.083 92.6262 108.006 92.0256 109.852C91.425 111.698 91.1247 114.54 91.1247 118.377C91.1247 122.04 91.425 124.845 92.0256 126.793C92.6262 128.727 93.8566 129.693 95.717 129.693C97.5773 129.693 98.8005 128.719 99.3864 126.771ZM122.433 132.8H129.213V128.9H122.433V132.8ZM125.953 121.1H120.973C120.653 121.44 120.333 121.78 119.993 122.12C121.053 122.9 122.333 123.9 123.173 124.76C124.293 123.66 125.233 122.42 125.953 121.1ZM131.693 126.74V135.74H129.213V134.94H122.433V135.72H120.053V130.04C118.653 130.84 117.153 131.48 115.633 132C115.353 131.34 114.753 130.36 114.253 129.88C116.753 129.16 119.173 127.96 121.253 126.42C120.453 125.54 119.253 124.5 118.193 123.66C117.513 124.2 116.773 124.7 115.973 125.18C115.613 124.6 114.833 123.72 114.293 123.32C117.573 121.58 119.773 119.14 120.933 116.96L123.613 117.46C123.313 117.98 122.973 118.5 122.613 119.02H127.153L127.553 118.9L129.193 119.76C128.173 122.5 126.553 124.84 124.553 126.74H131.693ZM148.533 124.22L146.193 125.46C145.693 124.08 144.413 121.98 143.213 120.5L145.373 119.42C146.673 120.88 147.933 122.84 148.533 124.22ZM144.873 127.76L145.413 130.1C142.773 131.28 139.813 132.54 137.553 133.48L136.753 130.94C137.513 130.68 138.413 130.36 139.413 129.96L139.013 118.28L141.493 118.18L141.853 129C142.853 128.58 143.873 128.16 144.873 127.76ZM155.733 133.74L153.693 135.72C152.933 134.42 151.433 132.58 149.953 130.9C148.493 132.98 146.513 134.58 143.873 135.76C143.533 135.24 142.553 134.16 141.973 133.66C148.313 131.26 150.373 126.42 151.113 118.2L153.733 118.44C153.313 122.54 152.593 125.88 151.293 128.6C152.953 130.32 154.813 132.34 155.733 133.74ZM169.213 132.36H177.673V134.76H159.493V132.36H166.653V117.3H169.213V123.02H176.273V125.44H169.213V132.36Z" fill="white"/>
</svg>
