<svg width="171" height="150" viewBox="0 0 171 150" fill="none" xmlns="http://www.w3.org/2000/svg">
<path d="M20.0097 38.2833C19.8528 39.236 19.9066 40.2115 20.1675 41.1412C20.4284 42.0708 20.89 42.9319 21.5197 43.6638C22.1494 44.3958 22.9319 44.9808 23.8121 45.3776C24.6923 45.7744 25.6488 45.9734 26.6143 45.9605L42.7928 93.0358L53.1159 85.9412L33.1879 38.7926C33.0588 37.1722 32.3398 35.6554 31.167 34.5296C29.9943 33.4039 28.4494 32.7474 26.825 32.6846C25.2006 32.6219 23.6096 33.1571 22.3535 34.189C21.0974 35.2209 20.2635 36.6777 20.0097 38.2833Z" fill="#F1C0A0"/>
<path d="M104.454 54.2109C97.269 62.385 79.5535 76.7901 64.9595 86.7093C61.805 88.8533 58.7944 90.7844 56.0687 92.4006C54.2276 93.4921 52.5154 94.4366 50.9742 95.2072C49.9397 95.7225 48.81 96.0187 47.6558 96.0771C46.5016 96.1356 45.3477 95.9551 44.2665 95.5469C43.1853 95.1388 42.2 94.5117 41.3724 93.7051C40.5447 92.8985 39.8926 91.9297 39.4567 90.8593L29.3516 66.412L32.8479 64.0942L41.4687 58.3759L43.4268 57.0805L51.5109 76.3343L60.0358 69.4916L65.3283 65.2426L89.4547 45.8809L91.5357 45.2632L96.3904 50.0009L99.8237 53.3533L103.053 53.914C103.536 53.998 104.004 54.097 104.454 54.2109Z" fill="#E3C26A"/>
<path d="M116.519 80.4183L115.614 142.611L42.4609 140.512L54.1433 114.725C54.0594 113.897 59.2709 108.089 59.2409 107.228C59.1509 104.707 61.034 102.371 61.3399 99.732C61.9636 94.2896 58.3923 73.7375 60.0385 69.4915C60.7398 67.5955 61.6383 65.7784 62.7192 64.0702C63.6548 62.6548 64.6143 61.7013 65.5319 61.3565L68.2366 55.0535L70.6354 51.4552L89.4574 45.8809L91.5384 45.2632L96.3931 50.0009L99.8264 53.3533L103.056 53.914C103.539 53.998 104.006 54.097 104.456 54.2109C106.622 54.7104 108.641 55.7107 110.351 57.1315C115.989 61.9202 116.645 70.9279 116.519 80.4183Z" fill="#E3C26A"/>
<path d="M158.53 142.145C156.467 144.732 154.281 147.213 151.972 149.587L144.062 149.593L101.521 149.641L93.8631 149.65L88.7715 149.656L81.1972 149.662L75.371 149.668L64.6091 149.68L58.2612 149.689L44.8936 149.701L38.5127 149.71L20.8301 149.728L9.72348 149.74L6.74291 149.743C6.08022 149.065 5.42754 148.378 4.78485 147.68C3.18361 145.944 1.64335 144.154 0.164062 142.309L6.33511 142.303L10.5391 142.3L20.2724 142.288L39.0554 142.27L45.4033 142.264L47.9701 142.261H47.9791L49.9941 142.258L50.8967 142.255L53.2086 142.252H54.1861L61.0408 142.246L75.8267 142.228L82.3336 142.222L88.5646 142.216L94.4058 142.21L102.787 142.202L147.549 142.157L158.53 142.145Z" fill="#CCCCCC"/>
<path d="M57.3173 48.7601L57.301 48.7617C56.436 48.8422 55.5744 48.5757 54.9058 48.021C54.2372 47.4662 53.8163 46.6686 53.7359 45.8035L52.0306 27.6024C51.7219 24.3418 52.072 21.0524 53.0601 17.9298C54.9968 11.8354 59.2106 6.7234 64.8234 3.65922C67.7216 2.08122 70.9092 1.10635 74.1942 0.793379C87.6337 -0.487006 92.545 2.31202 100.847 22.8092C109.149 43.3064 102.555 41.0381 102.555 41.0381C102.596 41.4767 102.549 41.9192 102.416 42.3393C102.155 43.1587 101.587 43.8456 100.831 44.2563C100.443 44.4665 100.017 44.5967 99.5781 44.6391C83.6898 48.6777 67.6579 52.9288 57.3146 48.7604L57.3173 48.7601Z" fill="#2F2E41"/>
<path d="M86.8894 18.0395C88.8838 20.9904 89.9591 24.4662 89.9793 28.0278C89.9995 31.5895 88.9638 35.0772 87.0029 38.0506C85.0421 41.024 82.2441 43.3496 78.9624 44.7337C75.6806 46.1178 72.0623 46.4984 68.5644 45.8273C66.2489 45.3906 64.0431 44.4988 62.0747 43.2035C60.1064 41.9082 58.4146 40.2352 57.0975 38.2814C55.1072 35.3314 54.035 31.8582 54.0159 28.2998C53.9968 24.7413 55.0317 21.2568 56.9902 18.2857C58.9486 15.3145 61.743 12.9898 65.0208 11.6045C68.2987 10.2193 71.9133 9.83552 75.4089 10.5017C77.7262 10.9358 79.9343 11.8257 81.9051 13.1198C83.8759 14.4138 85.5701 16.0863 86.8895 18.0402L86.8894 18.0395Z" fill="#F1C0A0"/>
<path d="M46.3984 29.6246C46.1544 27.0459 46.4314 24.4444 47.2128 21.9747C47.394 15.9335 49.1467 10.4615 56.5151 10.6912C58.7928 9.45218 61.2964 8.68393 63.8771 8.43218L67.5183 8.07262C67.5592 8.06855 67.6001 8.06461 67.641 8.0608C70.1637 7.82602 72.7079 8.09041 75.1284 8.8389C77.549 9.58738 79.7983 10.8053 81.7482 12.4231C83.698 14.0409 85.3101 16.0269 86.4924 18.2677C87.6747 20.5085 88.4041 22.9603 88.6389 25.483L88.673 25.8475L80.9694 26.6007L77.6538 19.5055L77.8174 26.9103L73.8387 27.3008L72.1666 23.7211L72.2483 27.4546C66.3407 32.6575 57.3825 32.9302 46.436 29.9896L46.3984 29.6246Z" fill="#2F2E41"/>
<path d="M71.0417 46.8961C70.9762 47.4958 71.0802 48.1019 71.3421 48.6454C71.474 48.9237 71.6443 49.1822 71.848 49.4133C72.0222 49.6102 72.2191 49.7857 72.4346 49.9363C73.0728 50.3806 73.8484 50.583 74.6224 50.5071C74.6706 50.5021 74.7187 50.4963 74.7667 50.4895C74.8147 50.4827 74.8627 50.4748 74.9105 50.4658C74.9588 50.4572 75.0068 50.4472 75.0544 50.4359C75.102 50.4247 75.1498 50.4125 75.1977 50.3993L77.8863 49.6459L80.8996 41.2442L81.5903 48.6166L93.8163 45.2127L90.8852 13.9272L70.0469 15.9805L70.6183 16.5308C72.5172 18.3791 73.8694 20.7154 74.526 23.2826C75.1777 25.884 75.3789 28.5779 75.1207 31.2474C74.8796 33.9466 74.3798 36.6164 73.6283 39.2201C72.9742 41.5256 72.1877 43.7915 71.2729 46.0066C71.1546 46.2908 71.0768 46.5902 71.0417 46.8961Z" fill="#2F2E41"/>
<path d="M73.8213 145.535C73.463 145.535 73.1093 145.455 72.7857 145.301L15.0575 146.774C14.6145 146.564 14.2456 146.225 13.9995 145.801C13.7533 145.377 13.6416 144.888 13.6789 144.399C13.7163 143.911 13.901 143.445 14.2087 143.063C14.5164 142.682 14.9326 142.402 15.4023 142.262L53.1698 131.001C53.5609 130.885 53.9751 130.869 54.374 130.955L112.794 138.076C113.311 138.187 113.777 138.465 114.121 138.867C114.465 139.268 114.669 139.771 114.7 140.299C114.732 140.827 114.59 141.351 114.296 141.791C114.001 142.23 113.572 142.562 113.072 142.734L74.6124 145.402C74.3579 145.49 74.0905 145.535 73.8213 145.535Z" fill="#3F3D56"/>
<path d="M75.9437 141.516C75.6831 141.516 75.4267 141.45 75.1992 141.322L28.3154 143.513C28.0492 143.363 27.8341 143.137 27.6981 142.864C27.5622 142.591 27.5117 142.283 27.5532 141.98C27.5947 141.678 27.7263 141.395 27.9309 141.169C28.1355 140.942 28.4036 140.782 28.7002 140.71L45.6732 136.591C45.9381 136.527 46.2153 136.535 46.476 136.614L90.0611 136.562C90.3714 136.657 90.6432 136.849 90.8366 137.109C91.03 137.37 91.135 137.685 91.1361 138.01C91.1373 138.334 91.0345 138.651 90.8429 138.913C90.6513 139.175 90.3809 139.368 90.0713 139.465L76.3972 141.447C76.2504 141.493 76.0975 141.516 75.9437 141.516Z" fill="#2F2E41"/>
<path d="M71.0081 139.017C71.8196 139.541 72.7359 139.879 73.6926 140.01C74.6492 140.141 75.6229 140.06 76.545 139.774C77.4671 139.488 78.3152 139.003 79.0297 138.353C79.7441 137.704 80.3074 136.905 80.6799 136.015L130.305 139.913L127.906 127.619L76.7212 127.131C75.1833 126.604 73.5056 126.66 72.0061 127.288C70.5066 127.916 69.2894 129.071 68.5851 130.537C67.8809 132.002 67.7386 133.674 68.1852 135.237C68.6317 136.8 69.6361 138.145 71.0081 139.017Z" fill="#F1C0A0"/>
<path d="M100.318 58.9518C100.318 58.9518 107.815 52.9547 116.81 63.7495C122.877 71.0294 134.58 115.038 135.55 133.275C135.611 134.429 135.434 135.583 135.028 136.665C134.622 137.747 133.998 138.734 133.193 139.563C132.388 140.393 131.421 141.047 130.352 141.485C129.282 141.923 128.134 142.135 126.979 142.109L100.528 141.648L97.5703 125.021L118.453 125.269L100.318 58.9518Z" fill="#E3C26A"/>
<path d="M70.6053 145.542C69.6978 145.541 68.7997 145.359 67.9635 145.007L14.4565 146.228C13.0444 145.639 11.8722 144.591 11.1294 143.253C10.3866 141.915 10.1166 140.366 10.3632 138.856L8.375 91.8655C8.63867 90.1871 9.52211 88.6685 10.8509 87.6096C12.1796 86.5507 13.8571 86.0285 15.5521 86.1462L65.2272 88.2065C66.1807 88.269 67.1105 88.5313 67.9561 88.9762C68.8018 89.4212 69.5445 90.0389 70.136 90.7894C70.7276 91.5399 71.1547 92.4063 71.3899 93.3325C71.625 94.2587 71.6628 95.224 71.5009 96.1658L77.3209 139.875C77.0472 141.459 76.2238 142.896 74.9954 143.932C73.767 144.968 72.2125 145.538 70.6053 145.542Z" fill="#3F3D56"/>
<path d="M29.9798 5.64037L7.64956 5.57739C7.05099 5.57669 6.47657 5.81333 6.05219 6.23546C5.62782 6.65758 5.38812 7.23075 5.38565 7.82932L5.30469 37.3981C5.30343 37.9961 5.53957 38.5701 5.96126 38.994C6.38294 39.4179 6.95567 39.6571 7.55361 39.659L19.9407 39.695L29.8869 39.722C30.4853 39.7231 31.0596 39.4865 31.4836 39.0642C31.9076 38.6419 32.1465 38.0685 32.1478 37.4701L32.1538 35.7219L32.2318 7.90428C32.233 7.30556 31.9965 6.73084 31.5743 6.30635C31.152 5.88187 30.5786 5.64234 29.9798 5.64037Z" fill="#E6E6E6"/>
<path d="M28.4038 7.40651L9.21303 7.35254C8.65263 7.35183 8.11482 7.57332 7.71744 7.96845C7.32006 8.36358 7.09553 8.90014 7.09305 9.46053L7.03907 28.4714C7.03532 30.968 8.02195 33.3642 9.78254 35.1344C11.5431 36.9045 13.934 37.9041 16.4306 37.9139L20.0768 37.9229L28.3199 37.9469C28.8804 37.9481 29.4185 37.7268 29.816 37.3315C30.2135 36.9363 30.4379 36.3994 30.4398 35.8389L30.4458 33.9258L30.5118 9.5265C30.513 8.96595 30.2917 8.42783 29.8965 8.03034C29.5012 7.63284 28.9644 7.40848 28.4038 7.40651Z" fill="white"/>
<path d="M26.2437 20.3962H11.2809C11.1629 20.3962 11.0462 20.4195 10.9372 20.4646C10.8282 20.5097 10.7292 20.5759 10.6458 20.6593C10.5625 20.7427 10.4963 20.8417 10.4512 20.9506C10.406 21.0596 10.3828 21.1764 10.3828 21.2943C10.3828 21.4122 10.406 21.529 10.4512 21.638C10.4963 21.7469 10.5625 21.8459 10.6458 21.9293C10.7292 22.0127 10.8282 22.0789 10.9372 22.124C11.0462 22.1692 11.1629 22.1924 11.2809 22.1924H26.2437C26.4819 22.1924 26.7103 22.0978 26.8787 21.9293C27.0471 21.7609 27.1418 21.5325 27.1418 21.2943C27.1418 21.0561 27.0471 20.8277 26.8787 20.6593C26.7103 20.4909 26.4819 20.3962 26.2437 20.3962Z" fill="#E3C26A"/>
<path d="M14.5703 15.4727H11.2809C11.0427 15.4727 10.8143 15.5673 10.6459 15.7357C10.4774 15.9041 10.3828 16.1325 10.3828 16.3707C10.3828 16.6089 10.4774 16.8373 10.6459 17.0058C10.8143 17.1742 11.0427 17.2688 11.2809 17.2688H14.5703C14.8085 17.2688 15.0369 17.1742 15.2053 17.0058C15.3738 16.8373 15.4684 16.6089 15.4684 16.3707C15.4684 16.1325 15.3738 15.9041 15.2053 15.7357C15.0369 15.5673 14.8085 15.4727 14.5703 15.4727Z" fill="#E3C26A"/>
<path d="M26.2437 28.2915H11.2809C11.0427 28.2915 10.8143 28.3861 10.6458 28.5545C10.4774 28.723 10.3828 28.9514 10.3828 29.1896C10.3828 29.4278 10.4774 29.6562 10.6458 29.8246C10.8143 29.993 11.0427 30.0876 11.2809 30.0876H26.2437C26.4819 30.0876 26.7103 29.993 26.8787 29.8246C27.0471 29.6562 27.1418 29.4278 27.1418 29.1896C27.1418 28.9514 27.0471 28.723 26.8787 28.5545C26.7103 28.3861 26.4819 28.2915 26.2437 28.2915Z" fill="#E3C26A"/>
<path d="M26.25 24.3452H11.2872C11.0494 24.3452 10.8214 24.4397 10.6532 24.6078C10.4851 24.776 10.3906 25.004 10.3906 25.2418C10.3906 25.4796 10.4851 25.7076 10.6532 25.8758C10.8214 26.0439 11.0494 26.1384 11.2872 26.1384H26.25C26.4878 26.1384 26.7158 26.0439 26.884 25.8758C27.0521 25.7076 27.1466 25.4796 27.1466 25.2418C27.1466 25.004 27.0521 24.776 26.884 24.6078C26.7158 24.4397 26.4878 24.3452 26.25 24.3452Z" fill="#E3C26A"/>
<path d="M23.3358 18.6482C22.2851 18.6482 21.258 18.3366 20.3844 17.7529C19.5108 17.1692 18.8299 16.3395 18.4278 15.3688C18.0257 14.3981 17.9205 13.3299 18.1255 12.2994C18.3305 11.2689 18.8364 10.3223 19.5794 9.5794C20.3223 8.83645 21.2689 8.3305 22.2994 8.12552C23.3299 7.92054 24.3981 8.02574 25.3688 8.42782C26.3395 8.8299 27.1692 9.5108 27.7529 10.3844C28.3366 11.258 28.6482 12.2851 28.6482 13.3358C28.6466 14.7442 28.0864 16.0945 27.0905 17.0905C26.0945 18.0864 24.7443 18.6466 23.3358 18.6482ZM23.3358 8.39262C22.3581 8.39261 21.4024 8.68252 20.5895 9.22569C19.7766 9.76885 19.143 10.5409 18.7689 11.4441C18.3947 12.3474 18.2968 13.3413 18.4876 14.3002C18.6783 15.2591 19.1491 16.1399 19.8404 16.8312C20.5317 17.5225 21.4125 17.9933 22.3714 18.184C23.3303 18.3748 24.3242 18.2769 25.2275 17.9027C26.1307 17.5286 26.9027 16.895 27.4459 16.0821C27.9891 15.2692 28.279 14.3135 28.279 13.3358C28.2775 12.0253 27.7562 10.7688 26.8295 9.8421C25.9028 8.91539 24.6464 8.39411 23.3358 8.39262Z" fill="#E3C26A"/>
</svg>
